<svg width='0' height='0' class='hidden'>
    <defs>
        <!--ICONS HEADER-->
      <symbol id='home' viewBox='0 0 35 35' fill='none' xmlns='http://www.w3.org/2000/svg'>
          <path d='M32.0833 29.1666V17.7537C32.0834 16.9597 31.9214 16.174 31.6072 15.4448C31.293 14.7156 30.8332 14.0582 30.256 13.5129L19.5037 3.3512C18.9622 2.83922 18.2452 2.55396 17.5 2.55396C16.7547 2.55396 16.0378 2.83922 15.4962 3.3512L4.74395 13.5129C4.16677 14.0582 3.707 14.7156 3.3928 15.4448C3.07859 16.174 2.91657 16.9597 2.91666 17.7537V29.1666C2.91666 29.9402 3.22395 30.682 3.77093 31.229C4.31791 31.776 5.05978 32.0833 5.83332 32.0833H29.1667C29.9402 32.0833 30.6821 31.776 31.2291 31.229C31.776 30.682 32.0833 29.9402 32.0833 29.1666Z' stroke-width='2.91667' stroke-linecap='round' stroke-linejoin='round' />
      </symbol>
      <!-- ICONS SOCIAL NETWORK-->
      <symbol id="github" xmlns="http://www.w3.org/2000/svg" viewBox="0 0 496 512">
          <path d="M165.9 397.4c0 2-2.3 3.6-5.2 3.6-3.3.3-5.6-1.3-5.6-3.6 0-2 2.3-3.6 5.2-3.6 3-.3 5.6 1.3 5.6 3.6zm-31.1-4.5c-.7 2 1.3 4.3 4.3 4.9 2.6 1 5.6 0 6.2-2s-1.3-4.3-4.3-5.2c-2.6-.7-5.5.3-6.2 2.3zm44.2-1.7c-2.9.7-4.9 2.6-4.6 4.9.3 2 2.9 3.3 5.9 2.6 2.9-.7 4.9-2.6 4.6-4.6-.3-1.9-3-3.2-5.9-2.9zM244.8 8C106.1 8 0 113.3 0 252c0 110.9 69.8 205.8 169.5 239.2 12.8 2.3 17.3-5.6 17.3-12.1 0-6.2-.3-40.4-.3-61.4 0 0-70 15-84.7-29.8 0 0-11.4-29.1-27.8-36.6 0 0-22.9-15.7 1.6-15.4 0 0 24.9 2 38.6 25.8 21.9 38.6 58.6 27.5 72.9 20.9 2.3-16 8.8-27.1 16-33.7-55.9-6.2-112.3-14.3-112.3-110.5 0-27.5 7.6-41.3 23.6-58.9-2.6-6.5-11.1-33.3 2.6-67.9 20.9-6.5 69 27 69 27 20-5.6 41.5-8.5 62.8-8.5s42.8 2.9 62.8 8.5c0 0 48.1-33.6 69-27 13.7 34.7 5.2 61.4 2.6 67.9 16 17.7 25.8 31.5 25.8 58.9 0 96.5-58.9 104.2-114.8 110.5 9.2 7.9 17 22.9 17 46.4 0 33.7-.3 75.4-.3 83.6 0 6.5 4.6 14.4 17.3 12.1C428.2 457.8 496 362.9 496 252 496 113.3 383.5 8 244.8 8zM97.2 352.9c-1.3 1-1 3.3.7 5.2 1.6 1.6 3.9 2.3 5.2 1 1.3-1 1-3.3-.7-5.2-1.6-1.6-3.9-2.3-5.2-1zm-10.8-8.1c-.7 1.3.3 2.9 2.3 3.9 1.6 1 3.6.7 4.3-.7.7-1.3-.3-2.9-2.3-3.9-2-.6-3.6-.3-4.3.7zm32.4 35.6c-1.6 1.3-1 4.3 1.3 6.2 2.3 2.3 5.2 2.6 6.5 1 1.3-1.3.7-4.3-1.3-6.2-2.2-2.3-5.2-2.6-6.5-1zm-11.4-14.7c-1.6 1-1.6 3.6 0 5.9 1.6 2.3 4.3 3.3 5.6 2.3 1.6-1.3 1.6-3.9 0-6.2-1.4-2.3-4-3.3-5.6-2z"/>
      </symbol>

      <symbol id="gitlab" xmlns="http://www.w3.org/2000/svg" xmlns:xlink="http://www.w3.org/1999/xlink" aria-hidden="true" role="img" preserveAspectRatio="xMidYMid meet" viewBox="0 0 1024 1024">
          <path d="m910.5 553.2l-109-370.8c-6.8-20.4-23.1-34.1-44.9-34.1s-39.5 12.3-46.3 32.7l-72.2 215.4H386.2L314 181.1c-6.8-20.4-24.5-32.7-46.3-32.7s-39.5 13.6-44.9 34.1L113.9 553.2c-4.1 13.6 1.4 28.6 12.3 36.8l385.4 289l386.7-289c10.8-8.1 16.3-23.1 12.2-36.8z"/>
      </symbol>

      <symbol id="linkedin" xmlns="http://www.w3.org/2000/svg" xmlns:xlink="http://www.w3.org/1999/xlink" aria-hidden="true" role="img" preserveAspectRatio="xMidYMid meet" viewBox="0 0 20 20">
          <path d="M10 .4C4.698.4.4 4.698.4 10s4.298 9.6 9.6 9.6s9.6-4.298 9.6-9.6S15.302.4 10 .4zM7.65 13.979H5.706V7.723H7.65v6.256zm-.984-7.024c-.614 0-1.011-.435-1.011-.973c0-.549.409-.971 1.036-.971s1.011.422 1.023.971c0 .538-.396.973-1.048.973zm8.084 7.024h-1.944v-3.467c0-.807-.282-1.355-.985-1.355c-.537 0-.856.371-.997.728c-.052.127-.065.307-.065.486v3.607H8.814v-4.26c0-.781-.025-1.434-.051-1.996h1.689l.089.869h.039c.256-.408.883-1.01 1.932-1.01c1.279 0 2.238.857 2.238 2.699v3.699z"/>
      </symbol>

      <symbol id="html" xmlns="http://www.w3.org/2000/svg" xmlns:xlink="http://www.w3.org/1999/xlink" aria-hidden="true" role="img" preserveAspectRatio="xMidYMid meet" viewBox="0 0 384 512">
        <path d="m0 32l34.9 395.8L191.5 480l157.6-52.2L384 32H0zm308.2 127.9H124.4l4.1 49.4h175.6l-13.6 148.4l-97.9 27v.3h-1.1l-98.7-27.3l-6-75.8h47.7L138 320l53.5 14.5l53.7-14.5l6-62.2H84.3L71.5 112.2h241.1l-4.4 47.7z"/>
      </symbol>

      <symbol id="css"  xmlns="http://www.w3.org/2000/svg" xmlns:xlink="http://www.w3.org/1999/xlink" aria-hidden="true" role="img"  preserveAspectRatio="xMidYMid meet" viewBox="0 0 384 512">
        <path d="m0 32l34.9 395.8L192 480l157.1-52.2L384 32H0zm313.1 80l-4.8 47.3L193 208.6l-.3.1h111.5l-12.8 146.6l-98.2 28.7l-98.8-29.2l-6.4-73.9h48.9l3.2 38.3l52.6 13.3l54.7-15.4l3.7-61.6l-166.3-.5v-.1l-.2.1l-3.6-46.3L193.1 162l6.5-2.7H76.7L70.9 112h242.2z"/>
      </symbol>

      <symbol id="javascript" xmlns="http://www.w3.org/2000/svg" xmlns:xlink="http://www.w3.org/1999/xlink" aria-hidden="true" role="img" preserveAspectRatio="xMidYMid meet" viewBox="0 0 24 24">
        <path fill-rule="evenodd" d="M0 0h24v24H0V0Zm18.347 20.12c-1.113 0-1.742-.58-2.225-1.37l-1.833 1.065c.662 1.308 2.015 2.306 4.11 2.306c2.142 0 3.737-1.112 3.737-3.143c0-1.883-1.082-2.72-2.998-3.543l-.564-.241c-.968-.42-1.387-.693-1.387-1.37c0-.547.42-.966 1.08-.966c.647 0 1.064.273 1.451.966l1.756-1.127c-.743-1.307-1.773-1.806-3.207-1.806c-2.014 0-3.303 1.288-3.303 2.98c0 1.835 1.08 2.704 2.708 3.397l.564.242c1.029.45 1.642.724 1.642 1.497c0 .646-.597 1.113-1.531 1.113Zm-8.74-.015c-.775 0-1.098-.53-1.452-1.16l-1.836 1.112c.532 1.126 1.578 2.06 3.383 2.06c1.999 0 3.368-1.063 3.368-3.398v-7.7h-2.255v7.67c0 1.127-.468 1.416-1.209 1.416Z" clip-rule="evenodd"/>
      </symbol>

      <symbol id="node" xmlns="http://www.w3.org/2000/svg" xmlns:xlink="http://www.w3.org/1999/xlink" aria-hidden="true" role="img" preserveAspectRatio="xMidYMid meet" viewBox="0 0 24 24">
        <path  d="M12 23.956c-.342 0-.66-.089-.957-.243l-3.029-1.738c-.455-.242-.227-.33-.09-.374c.614-.198.728-.242 1.366-.595c.068-.044.16-.022.228.022l2.323 1.343c.09.044.205.044.273 0l9.087-5.084c.09-.044.136-.132.136-.242V6.899c0-.11-.045-.198-.136-.242l-9.087-5.061c-.091-.044-.205-.044-.273 0L2.754 6.657c-.091.044-.137.154-.137.242v10.146c0 .088.046.198.137.242l2.482 1.387c1.344.66 2.186-.11 2.186-.88V7.78c0-.132.114-.264.274-.264h1.161c.137 0 .273.11.273.264v10.013c0 1.739-.979 2.751-2.687 2.751c-.524 0-.934 0-2.095-.55l-2.391-1.32A1.847 1.847 0 0 1 1 17.067V6.921c0-.66.364-1.276.957-1.606L11.044.23a2.095 2.095 0 0 1 1.912 0l9.088 5.084c.592.33.956.946.956 1.606v10.146c0 .66-.364 1.276-.956 1.607l-9.088 5.083a2.4 2.4 0 0 1-.956.198Zm2.801-6.977c-3.985 0-4.805-1.76-4.805-3.257c0-.132.114-.264.273-.264h1.184c.137 0 .25.088.25.22c.183 1.166.707 1.738 3.121 1.738c1.913 0 2.733-.418 2.733-1.408c0-.572-.228-.99-3.211-1.276c-2.483-.243-4.031-.77-4.031-2.685c0-1.783 1.548-2.84 4.145-2.84c2.915 0 4.35.969 4.532 3.082a.347.347 0 0 1-.069.198c-.045.044-.113.088-.182.088h-1.184a.265.265 0 0 1-.25-.198c-.274-1.21-.98-1.607-2.847-1.607c-2.096 0-2.346.704-2.346 1.232c0 .639.296.837 3.12 1.189c2.801.352 4.122.858 4.122 2.75c-.023 1.938-1.662 3.038-4.555 3.038Z"/>
      </symbol>

      <symbol id="react" xmlns="http://www.w3.org/2000/svg" xmlns:xlink="http://www.w3.org/1999/xlink" aria-hidden="true" role="img" preserveAspectRatio="xMidYMid meet" viewBox="0 0 24 24">
        <g>
          <g clip-path="url(#svgIDa)"><path d="M24 11.689c0-1.59-1.991-3.097-5.044-4.031c.705-3.111.392-5.587-.988-6.38a2.145 2.145 0 0 0-1.096-.273v1.09c.225 0 .406.045.558.128c.665.382.954 1.834.729 3.703c-.054.46-.142.944-.25 1.438a23.706 23.706 0 0 0-3.106-.533a23.857 23.857 0 0 0-2.035-2.446c1.595-1.482 3.092-2.294 4.11-2.294V1c-1.346 0-3.107.959-4.888 2.622C10.21 1.97 8.448 1.02 7.103 1.02v1.09c1.013 0 2.515.808 4.11 2.28c-.685.72-1.37 1.536-2.021 2.441a22.844 22.844 0 0 0-3.111.538a14.683 14.683 0 0 1-.255-1.418c-.23-1.87.054-3.322.715-3.708c.146-.088.337-.128.562-.128v-1.09c-.41 0-.783.088-1.105.273c-1.375.793-1.683 3.263-.974 6.365C1.981 8.603 0 10.104 0 11.689c0 1.59 1.991 3.097 5.044 4.03c-.705 3.112-.392 5.588.988 6.38c.318.186.69.274 1.1.274c1.346 0 3.107-.959 4.888-2.622c1.78 1.653 3.541 2.602 4.887 2.602a2.18 2.18 0 0 0 1.105-.274c1.375-.792 1.683-3.262.974-6.364C22.019 14.781 24 13.274 24 11.689Zm-6.37-3.263a22.023 22.023 0 0 1-.66 1.932a26.444 26.444 0 0 0-1.345-2.319c.695.103 1.365.23 2.006.387Zm-2.24 5.21a25.94 25.94 0 0 1-1.179 1.869a25.453 25.453 0 0 1-4.412.005a25.457 25.457 0 0 1-2.201-3.806a26.064 26.064 0 0 1 2.192-3.82a25.455 25.455 0 0 1 4.411-.006c.406.582.803 1.204 1.184 1.86c.372.64.71 1.29 1.018 1.946a27.41 27.41 0 0 1-1.013 1.952ZM16.97 13c.264.655.49 1.311.675 1.947c-.64.157-1.316.289-2.015.391A27.044 27.044 0 0 0 16.97 13Zm-4.96 5.22c-.455-.47-.91-.993-1.36-1.566c.44.02.89.035 1.345.035c.46 0 .915-.01 1.36-.035c-.44.573-.895 1.096-1.345 1.566Zm-3.64-2.882a22.113 22.113 0 0 1-2.006-.386c.181-.631.406-1.282.66-1.932c.201.39.412.782.642 1.174c.23.391.464.773.704 1.144Zm3.615-10.18c.455.47.91.993 1.36 1.566c-.44-.02-.89-.035-1.345-.035c-.46 0-.915.01-1.36.035c.44-.573.895-1.096 1.345-1.566ZM8.365 8.04a27.02 27.02 0 0 0-1.34 2.333a20.96 20.96 0 0 1-.675-1.947c.64-.152 1.316-.284 2.015-.386Zm-4.427 6.124c-1.732-.738-2.852-1.707-2.852-2.475s1.12-1.742 2.852-2.475c.42-.181.88-.343 1.355-.494c.279.958.646 1.956 1.1 2.979a23.165 23.165 0 0 0-1.085 2.964a14.875 14.875 0 0 1-1.37-.499Zm2.632 6.99c-.665-.38-.954-1.834-.729-3.702c.054-.46.142-.945.25-1.439c.958.235 2.005.416 3.106.534a23.87 23.87 0 0 0 2.035 2.446c-1.595 1.482-3.092 2.294-4.11 2.294a1.167 1.167 0 0 1-.552-.132Zm11.604-3.727c.23 1.869-.054 3.322-.715 3.708c-.146.088-.337.127-.562.127c-1.013 0-2.515-.807-4.11-2.28a23.01 23.01 0 0 0 2.021-2.44a22.843 22.843 0 0 0 3.111-.538c.113.494.2.968.255 1.423Zm1.883-3.263c-.42.181-.88.343-1.355.494a23.482 23.482 0 0 0-1.1-2.979c.45-1.017.811-2.01 1.085-2.964a15.3 15.3 0 0 1 1.375.499c1.732.738 2.852 1.707 2.852 2.475c-.005.768-1.125 1.742-2.857 2.475Z"/><path d="M11.995 13.925a2.236 2.236 0 1 0 0-4.472a2.236 2.236 0 0 0 0 4.472Z"/>
          </g>
          <defs>
              <clipPath id="svgIDa"><path fill="#fff" d="M0 0h24v24H0z"/></clipPath>
          </defs>
        </g>
      </symbol>

      <symbol id="mysql" xmlns="http://www.w3.org/2000/svg" xmlns:xlink="http://www.w3.org/1999/xlink" aria-hidden="true" role="img" preserveAspectRatio="xMidYMid meet" viewBox="0 0 24 24">
        <path d="m24.129 23.412l-.508-.484a6.66 6.66 0 0 0-.809-.891l-.005-.004q-.448-.407-.931-.774q-.387-.266-1.064-.641a1.6 1.6 0 0 1-.818-.824l-.004-.01l-.048-.024c.212-.021.406-.06.592-.115l-.023.006l.57-.157c.236-.074.509-.122.792-.133h.006c.298-.012.579-.06.847-.139l-.025.006q.194-.048.399-.109t.351-.109v-.169q-.145-.217-.351-.496a2.561 2.561 0 0 0-.443-.468l-.005-.004q-.629-.556-1.303-1.076a15.783 15.783 0 0 0-1.311-.916l-.068-.04a4.983 4.983 0 0 0-.825-.435l-.034-.012q-.448-.182-.883-.399a1.638 1.638 0 0 0-.327-.119l-.011-.002a.516.516 0 0 1-.29-.169l-.001-.001a2.999 2.999 0 0 1-.355-.609l-.008-.02q-.145-.339-.314-.651q-.363-.702-.702-1.427t-.651-1.452q-.217-.484-.399-.967a5.395 5.395 0 0 0-.461-.942l.013.023a17.366 17.366 0 0 0-1.331-1.961l.028.038a14.57 14.57 0 0 0-1.459-1.59l-.008-.007a17.619 17.619 0 0 0-1.632-1.356l-.049-.035q-.896-.651-1.96-1.282a3.7 3.7 0 0 0-.965-.393l-.026-.006l-1.113-.278l-.629-.048q-.314-.024-.629-.024a1.68 1.68 0 0 1-.387-.279a3.581 3.581 0 0 0-.353-.295l-.01-.007a11.686 11.686 0 0 0-2.043-.93L2.071.18A1.355 1.355 0 0 0 .9.096L.909.093a1.36 1.36 0 0 0-.795.84l-.003.01a1.515 1.515 0 0 0 .232 1.549l-.002-.003q.544.725.834 1.14q.217.291.448.605c.141.188.266.403.367.63l.008.021c.056.119.105.261.141.407l.003.016q.048.206.121.448q.217.556.411 1.14c.141.425.297.785.478 1.128l-.019-.04q.145.266.291.52T3.738 9a.868.868 0 0 0 .241.242l.003.002a.406.406 0 0 1 .169.313v.001a1.326 1.326 0 0 0-.217.586l-.001.006a4.227 4.227 0 0 1-.153.695l.008-.03a7.103 7.103 0 0 0-.351 2.231c0 .258.013.512.04.763l-.003-.031c.06.958.349 1.838.812 2.6l-.014-.025c.197.295.408.552.641.787a.914.914 0 0 0 1.106.203l-.005.002a.926.926 0 0 0 .617-.827v-.002c.048-.474.12-.898.219-1.312l-.013.067a.595.595 0 0 0 .038-.211l-.002-.045v.002q-.012-.109.133-.206v.048q.145.339.302.677t.326.677c.295.449.608.841.952 1.202l-.003-.003a7.74 7.74 0 0 0 1.127 1.001l.022.015c.212.162.398.337.566.528l.004.004c.158.186.347.339.56.454l.01.005v-.024h.048a.461.461 0 0 0-.18-.205l-.002-.001a1.829 1.829 0 0 1-.211-.136l.005.003q-.217-.217-.448-.484t-.423-.508q-.508-.702-.969-1.467t-.871-1.555q-.194-.387-.375-.798t-.351-.798a.997.997 0 0 1-.096-.334v-.005a.318.318 0 0 0-.168-.265l-.002-.001a2.947 2.947 0 0 1-.408.545l.001-.001a1.974 1.974 0 0 0-.382.58l-.005.013a4.272 4.272 0 0 0-.289 1.154l-.002.019q-.072.641-.145 1.318l-.048.024l-.024.024a.855.855 0 0 1-.59-.443l-.002-.005q-.182-.351-.326-.69a6.448 6.448 0 0 1-.423-2.144v-.009a6.218 6.218 0 0 1 .286-2.318l-.012.044q.072-.266.314-.896t.097-.871a.876.876 0 0 0-.265-.41l-.001-.001a3.31 3.31 0 0 1-.335-.335l-.003-.004q-.169-.244-.326-.52t-.278-.544a11.408 11.408 0 0 1-.474-1.353l-.022-.089a10.174 10.174 0 0 0-.546-1.503l.026.064a3.32 3.32 0 0 0-.39-.669l.006.008q-.244-.326-.436-.617q-.244-.314-.484-.605a3.414 3.414 0 0 1-.426-.657l-.009-.02a1.638 1.638 0 0 1-.119-.327l-.002-.011a.406.406 0 0 1 .049-.34l-.001.002a.303.303 0 0 1 .073-.145a.308.308 0 0 1 .143-.072h.002a.55.55 0 0 1 .536-.035l-.003-.001c.219.062.396.124.569.195l-.036-.013q.459.194.847.375c.298.142.552.292.792.459l-.018-.012q.194.121.387.266t.411.291h.339q.387 0 .822.037c.293.023.564.078.822.164l-.024-.007c.481.143.894.312 1.286.515l-.041-.019q.593.302 1.125.641c.589.367 1.098.743 1.577 1.154l-.017-.014c.5.428.954.867 1.38 1.331l.01.012c.416.454.813.947 1.176 1.464l.031.047c.334.472.671 1.018.974 1.584l.042.085a4.6 4.6 0 0 1 .234.536l.011.033q.097.278.217.57q.266.605.57 1.221t.57 1.198l.532 1.161c.187.406.396.756.639 1.079l-.011-.015c.203.217.474.369.778.422l.008.001c.368.092.678.196.978.319l-.047-.017c.143.065.327.134.516.195l.04.011c.212.065.396.151.565.259l-.009-.005c.327.183.604.363.868.559l-.021-.015q.411.302.822.57q.194.145.651.423t.484.52a11.202 11.202 0 0 0-1.834.087l.056-.006a5.959 5.959 0 0 0-1.479.39l.04-.014a2.556 2.556 0 0 1-.388.129l-.019.004a.312.312 0 0 0-.266.277v.001c.061.076.11.164.143.26l.002.006c.034.102.075.19.125.272l-.003-.006c.119.211.247.393.391.561l-.004-.005c.141.174.3.325.476.454l.007.005q.244.194.508.399c.161.126.343.25.532.362l.024.013c.284.174.614.34.958.479l.046.016c.374.15.695.324.993.531l-.016-.011q.291.169.58.375t.556.399c.073.072.137.152.191.239l.003.005a.573.573 0 0 0 .36.193h.003v-.048a.516.516 0 0 1-.184-.267l-.001-.004a.95.95 0 0 0-.112-.273l.002.004zM5.553 4.207q-.194 0-.363.012a1.285 1.285 0 0 0-.323.063l.009-.003v.024h.048q.097.145.244.326t.266.351l.387.798l.048-.024a.735.735 0 0 0 .252-.321l.002-.005c.052-.139.082-.301.082-.469l-.001-.054v.003a.504.504 0 0 1-.108-.154l-.001-.003l-.081-.182a.52.52 0 0 0-.214-.192l-.003-.001a.93.93 0 0 1-.244-.169z"/>
      </symbol>

      <symbol id="postgres" xmlns="http://www.w3.org/2000/svg" xmlns:xlink="http://www.w3.org/1999/xlink" aria-hidden="true" role="img" preserveAspectRatio="xMidYMid meet" viewBox="0 0 24 24">
        <path d="M16.805 1a9.85 9.85 0 0 0-2.603.37l-.06.018a10.629 10.629 0 0 0-1.615-.151c-1.113-.019-2.07.243-2.84.68c-.76-.256-2.336-.697-3.997-.609c-1.157.061-2.419.402-3.354 1.36c-.933.958-1.426 2.44-1.322 4.457c.028.557.191 1.464.463 2.64c.27 1.175.652 2.55 1.127 3.805c.475 1.256.996 2.384 1.81 3.15c.406.384.965.707 1.624.68c.463-.018.882-.215 1.243-.506c.176.225.364.323.535.414c.215.114.425.192.642.244a4.61 4.61 0 0 0 1.84.091c.267-.043.548-.127.828-.247c.01.302.022.598.035.898c.038.95.063 1.827.357 2.596c.047.126.176.773.687 1.344c.51.572 1.51.928 2.648.692c.803-.167 1.825-.468 2.503-1.404c.67-.926.973-2.255 1.033-4.409c.015-.116.033-.215.052-.308l.16.014h.018c.857.038 1.787-.08 2.564-.43c.688-.31 1.208-.622 1.587-1.177c.095-.137.199-.303.227-.59c.028-.285-.14-.733-.421-.939c-.563-.414-.916-.257-1.295-.18c-.373.08-.753.124-1.136.133c1.093-1.784 1.876-3.68 2.323-5.358c.264-.99.413-1.903.425-2.701c.012-.798-.055-1.505-.548-2.117c-1.541-1.91-3.708-2.438-5.384-2.456c-.052-.001-.104-.002-.156-.001V1Zm-.044.587c1.585-.015 3.611.417 5.065 2.22c.327.405.424.997.413 1.727c-.012.729-.151 1.601-.405 2.557c-.493 1.852-1.425 4.01-2.738 5.948a.724.724 0 0 0 .15.079c.274.11.898.204 2.145-.044c.313-.065.543-.108.781.068a.478.478 0 0 1 .173.39a.635.635 0 0 1-.123.308c-.24.351-.716.684-1.326.958c-.539.244-1.313.371-1.999.379c-.344.003-.661-.023-.93-.104l-.018-.006c-.104.971-.343 2.89-.498 3.765c-.125.706-.343 1.267-.76 1.687c-.416.42-1.004.673-1.796.838c-.981.204-1.696-.016-2.157-.393c-.46-.375-.671-.874-.798-1.18c-.087-.21-.132-.483-.176-.848a18.073 18.073 0 0 1-.097-1.315a45.725 45.725 0 0 1-.028-2.313c-.41.364-.92.606-1.467.697c-.65.107-1.232.002-1.579-.082a2.19 2.19 0 0 1-.49-.185c-.162-.083-.315-.177-.417-.363a.5.5 0 0 1-.054-.35a.559.559 0 0 1 .206-.303c.188-.148.435-.23.808-.306c.68-.135.917-.228 1.061-.339c.123-.095.262-.287.508-.57a1.166 1.166 0 0 1-.003-.037a2.864 2.864 0 0 1-1.257-.329c-.141.145-.865.888-1.748 1.918c-.371.431-.781.678-1.214.696c-.433.018-.824-.194-1.156-.506c-.665-.626-1.195-1.703-1.657-2.92c-.46-1.218-.836-2.574-1.102-3.729c-.268-1.155-.426-2.086-.448-2.535c-.1-1.909.36-3.195 1.15-4.006c.79-.811 1.872-1.118 2.928-1.177c1.894-.106 3.693.535 4.057.673c.701-.462 1.604-.75 2.733-.732a7.185 7.185 0 0 1 1.588.2l.019-.008c.229-.078.462-.144.698-.196a9.362 9.362 0 0 1 1.957-.23v-.002Zm.143.614h-.137a8.502 8.502 0 0 0-1.61.176a7.048 7.048 0 0 1 2.692 2.062a7.72 7.72 0 0 1 1.07 1.76c.104.242.174.447.213.605c.02.08.034.147.038.217a.392.392 0 0 1-.011.132l-.006.012c.029.803-.176 1.347-.201 2.113c-.019.556.127 1.209.163 1.92c.034.67-.049 1.405-.497 2.127c.038.044.072.088.108.132c1.185-1.81 2.04-3.814 2.495-5.521c.243-.92.373-1.753.384-2.413c.01-.66-.117-1.139-.279-1.338c-1.268-1.573-2.983-1.974-4.422-1.985Zm-4.525.235c-1.117.002-1.919.33-2.526.82c-.627.507-1.047 1.2-1.323 1.911a7.898 7.898 0 0 0-.485 2.213l.013-.007c.337-.184.78-.367 1.254-.473c.475-.106.986-.139 1.449.035c.463.175.846.584.985 1.206c.665 2.986-.207 4.096-.529 4.933a8.628 8.628 0 0 0-.313.929c.041-.01.082-.02.122-.024a1.06 1.06 0 0 1 .51.1c.324.13.546.402.666.714c.031.082.054.17.067.26c.014.038.02.077.019.117a49.059 49.059 0 0 0 .012 3.426c.022.494.054.928.095 1.271c.04.342.098.602.135.69c.12.294.297.678.617.939c.32.26.777.434 1.614.26c.726-.151 1.174-.36 1.474-.663c.298-.301.477-.72.591-1.363c.171-.963.515-3.754.556-4.28c-.018-.395.042-.7.172-.932c.135-.238.343-.384.522-.463c.09-.04.174-.066.243-.085a5.487 5.487 0 0 0-.23-.298a4.065 4.065 0 0 1-.629-1.007a7.578 7.578 0 0 0-.243-.443c-.125-.22-.284-.495-.45-.804c-.333-.619-.695-1.369-.883-2.1c-.187-.729-.215-1.484.265-2.017c.426-.473 1.172-.669 2.293-.559c-.033-.096-.053-.176-.109-.304a7.125 7.125 0 0 0-.983-1.617c-.95-1.178-2.487-2.346-4.863-2.384h-.108v-.001Zm-6.276.047c-.12 0-.24.004-.36.01c-.954.053-1.856.322-2.501.986c-.647.663-1.072 1.751-.98 3.553c.019.34.172 1.296.434 2.43c.262 1.136.634 2.471 1.08 3.65c.446 1.18.988 2.207 1.502 2.693c.259.243.484.341.688.333c.205-.01.451-.124.753-.475a40.03 40.03 0 0 1 1.71-1.877a3.206 3.206 0 0 1-.932-1.307a3.116 3.116 0 0 1-.17-1.58c.097-.678.11-1.312.099-1.812c-.012-.488-.048-.812-.048-1.015v-.028a8.806 8.806 0 0 1 .559-3.095c.264-.682.658-1.375 1.249-1.936c-.58-.185-1.61-.467-2.725-.52a7.4 7.4 0 0 0-.36-.01h.002Zm11.714 4.842c-.641.008-1.001.169-1.19.379c-.268.298-.293.82-.127 1.464c.165.644.507 1.365.829 1.963c.16.3.316.57.442.788c.127.22.22.376.276.51c.052.122.11.23.168.331c.248-.509.293-1.008.267-1.529c-.033-.644-.187-1.303-.164-1.97c.025-.78.184-1.289.198-1.892a5.639 5.639 0 0 0-.699-.044Zm-7.78.105a2.743 2.743 0 0 0-.582.068a4.49 4.49 0 0 0-1.09.412c-.115.06-.226.13-.33.209l-.02.018c.006.134.033.459.045.936c.01.523-.002 1.19-.106 1.91c-.226 1.568.946 2.866 2.324 2.868c.08-.322.213-.648.345-.992c.384-1.003 1.139-1.734.503-4.589c-.104-.467-.31-.656-.594-.763a1.431 1.431 0 0 0-.495-.077Zm7.48.187h.048c.062.002.12.009.17.02a.396.396 0 0 1 .13.051a.153.153 0 0 1 .071.1v.008a.215.215 0 0 1-.034.124a.614.614 0 0 1-.104.137a.646.646 0 0 1-.364.195a.57.57 0 0 1-.388-.095a.569.569 0 0 1-.123-.108a.235.235 0 0 1-.06-.116a.151.151 0 0 1 .04-.118a.361.361 0 0 1 .111-.082a1.256 1.256 0 0 1 .504-.118v.002Zm-7.388.154c.05 0 .103.005.157.012c.144.02.273.057.371.112c.048.025.09.057.126.097a.214.214 0 0 1 .042.073a.195.195 0 0 1 .009.083a.274.274 0 0 1-.071.141a.608.608 0 0 1-.135.12a.619.619 0 0 1-.424.103a.694.694 0 0 1-.396-.209a.652.652 0 0 1-.112-.15a.25.25 0 0 1-.039-.162c.014-.1.099-.15.18-.18a.842.842 0 0 1 .29-.036l.002-.004Zm8.56 6.732h-.003c-.139.05-.253.07-.35.11a.423.423 0 0 0-.225.197c-.06.105-.11.292-.095.61a.49.49 0 0 0 .14.064c.161.048.432.08.735.075c.602-.007 1.344-.143 1.738-.321c.323-.146.623-.336.891-.564c-1.317.264-2.06.194-2.517.011a1.247 1.247 0 0 1-.314-.183Zm-7.588.086h-.02c-.05.004-.123.02-.263.172c-.33.358-.444.582-.716.792c-.27.21-.623.321-1.327.461c-.223.044-.35.093-.436.132c.028.022.025.028.066.049c.103.055.236.103.342.13c.303.073.8.159 1.319.073c.518-.086 1.058-.327 1.518-.953c.08-.108.088-.268.023-.44c-.067-.17-.211-.318-.313-.36a.632.632 0 0 0-.193-.054v-.002Z"/>
      </symbol>

      <symbol id='eye' xmlns="http://www.w3.org/2000/svg" xmlns:xlink="http://www.w3.org/1999/xlink" aria-hidden="true" role="img" preserveAspectRatio="xMidYMid meet" viewBox="0 0 16 16">
        <g fill="none" stroke-linecap="round" stroke-linejoin="round" stroke-width="1.5">
          <path d="M1.75 8s2-4.25 6.25-4.25S14.25 8 14.25 8s-2 4.25-6.25 4.25S1.75 8 1.75 8z"/>
          <circle cx="8" cy="8" r="1.25" fill="currentColor"/>
        </g>
      </symbol>

      <symbol id="java" xmlns="http://www.w3.org/2000/svg" xmlns:xlink="http://www.w3.org/1999/xlink" aria-hidden="true" role="img" preserveAspectRatio="xMidYMid meet" viewBox="0 0 384 512">
        <path d="M277.74 312.9c9.8-6.7 23.4-12.5 23.4-12.5s-38.7 7-77.2 10.2c-47.1 3.9-97.7 4.7-123.1 1.3c-60.1-8 33-30.1 33-30.1s-36.1-2.4-80.6 19c-52.5 25.4 130 37 224.5 12.1zm-85.4-32.1c-19-42.7-83.1-80.2 0-145.8C296 53.2 242.84 0 242.84 0c21.5 84.5-75.6 110.1-110.7 162.6c-23.9 35.9 11.7 74.4 60.2 118.2zm114.6-176.2c.1 0-175.2 43.8-91.5 140.2c24.7 28.4-6.5 54-6.5 54s62.7-32.4 33.9-72.9c-26.9-37.8-47.5-56.6 64.1-121.3zm-6.1 270.5a12.19 12.19 0 0 1-2 2.6c128.3-33.7 81.1-118.9 19.8-97.3a17.33 17.33 0 0 0-8.2 6.3a70.45 70.45 0 0 1 11-3c31-6.5 75.5 41.5-20.6 91.4zM348 437.4s14.5 11.9-15.9 21.2c-57.9 17.5-240.8 22.8-291.6.7c-18.3-7.9 16-19 26.8-21.3c11.2-2.4 17.7-2 17.7-2c-20.3-14.3-131.3 28.1-56.4 40.2C232.84 509.4 401 461.3 348 437.4zM124.44 396c-78.7 22 47.9 67.4 148.1 24.5a185.89 185.89 0 0 1-28.2-13.8c-44.7 8.5-65.4 9.1-106 4.5c-33.5-3.8-13.9-15.2-13.9-15.2zm179.8 97.2c-78.7 14.8-175.8 13.1-233.3 3.6c0-.1 11.8 9.7 72.4 13.6c92.2 5.9 233.8-3.3 237.1-46.9c0 0-6.4 16.5-76.2 29.7zM260.64 353c-59.2 11.4-93.5 11.1-136.8 6.6c-33.5-3.5-11.6-19.7-11.6-19.7c-86.8 28.8 48.2 61.4 169.5 25.9a60.37 60.37 0 0 1-21.1-12.8z"/>
      </symbol>

      <symbol id="sql" xmlns="http://www.w3.org/2000/svg" xmlns:xlink="http://www.w3.org/1999/xlink" aria-hidden="true" role="img" preserveAspectRatio="xMidYMid meet" viewBox="0 0 32 32">
        <path d="M8.562 15.256A21.159 21.159 0 0 0 16 16.449a21.159 21.159 0 0 0 7.438-1.194c1.864-.727 2.525-1.535 2.525-2V9.7a10.357 10.357 0 0 1-2.084 1.076A22.293 22.293 0 0 1 16 12.078a22.36 22.36 0 0 1-7.879-1.3A10.28 10.28 0 0 1 6.037 9.7v3.55c0 .474.663 1.278 2.525 2.006Zm0 6.705a15.611 15.611 0 0 0 2.6.741a24.9 24.9 0 0 0 4.838.453a24.9 24.9 0 0 0 4.838-.452a15.614 15.614 0 0 0 2.6-.741c1.864-.727 2.525-1.535 2.525-2v-3.39a10.706 10.706 0 0 1-1.692.825A23.49 23.49 0 0 1 16 18.74a23.49 23.49 0 0 1-8.271-1.348a10.829 10.829 0 0 1-1.692-.825v3.393c0 .466.663 1.271 2.525 2.001ZM16 30c5.5 0 9.963-1.744 9.963-3.894v-2.837a10.5 10.5 0 0 1-1.535.762l-.157.063A23.487 23.487 0 0 1 16 25.445a23.422 23.422 0 0 1-8.271-1.351c-.054-.02-.106-.043-.157-.063a10.5 10.5 0 0 1-1.535-.762v2.837C6.037 28.256 10.5 30 16 30Z"/>
        <ellipse cx="16" cy="5.894" rx="9.963" ry="3.894"/>
      </symbol>
    </defs>
</svg>